#N canvas 643 27 450 262 10;
#X declare -lib mrpeach;
#N canvas 474 15 795 652 sect-midi-client-innards 0;
#X obj 30 377 loadbang;
#X obj 161 269 sect-midi-client-lua;
#X obj 244 578 noteout;
#X obj 238 20 notein;
#X obj 338 20 ctlin;
#X obj 379 20 pgmin;
#X obj 285 20 touchin;
#X obj 420 20 polytouchin;
#X obj 497 20 bendin;
#X obj 296 578 touchout;
#X obj 354 578 ctlout;
#X obj 400 578 pgmout;
#X obj 446 578 polytouchout;
#X obj 528 578 bendout;
#X text 16 175 note: netsend requires format of "send bla bla num"
;
#X obj 140 372 print TO USER;
#X obj 563 539 print BAD CMD;
#X obj 181 98 pack 0 0 0;
#X msg 181 122 note \$1 \$2 \$3;
#X obj 320 119 pack 0 0 0;
#X obj 530 99 pack 0 0 0;
#X obj 264 70 pack 0 0;
#X obj 410 92 pack 0 0;
#X obj 620 72 pack 0 0;
#X floatatom 377 312 5 0 0 0 - - -;
#X obj 326 333 loadbang;
#X obj 244 489 route note key_after_touch control_change patch_change
channel_after_touch pitch_wheel_change;
#X msg 265 95 key_after_touch \$1 \$2;
#X msg 320 143 control_change \$1 \$2 \$3;
#X msg 410 116 patch_change \$1 \$2;
#X msg 530 123 channel_after_touch \$1 \$2 \$3;
#X msg 620 96 pitch_wheel_change \$1 \$2;
#X obj 326 356 metro 10;
#X obj 16 619 import mrpeach;
#X obj 30 477 udpsend;
#X obj 74 20 loadbang;
#X msg 74 49 port 8562;
#X msg 629 357 send 0 8;
#X obj 74 82 udpreceive 8562;
#X msg 30 404 connect 127.0.0.1 8563;
#X text 626 338 test bang;
#X obj 232 337 list trim;
#X obj 30 500 tgl 15 0 empty empty empty 17 7 0 10 -262144 -1 -1 0
1;
#X connect 0 0 39 0;
#X connect 1 0 34 0;
#X connect 1 1 41 0;
#X connect 1 2 24 0;
#X connect 3 0 17 0;
#X connect 3 1 17 1;
#X connect 3 2 17 2;
#X connect 4 0 19 0;
#X connect 4 1 19 1;
#X connect 4 2 19 2;
#X connect 5 0 22 0;
#X connect 5 1 22 1;
#X connect 6 0 21 0;
#X connect 6 1 21 1;
#X connect 7 0 20 0;
#X connect 7 1 20 1;
#X connect 7 2 20 2;
#X connect 8 0 23 0;
#X connect 8 1 23 1;
#X connect 17 0 18 0;
#X connect 18 0 1 1;
#X connect 19 0 28 0;
#X connect 20 0 30 0;
#X connect 21 0 27 0;
#X connect 22 0 29 0;
#X connect 23 0 31 0;
#X connect 24 0 32 1;
#X connect 25 0 32 0;
#X connect 26 0 2 0;
#X connect 26 1 9 0;
#X connect 26 2 10 0;
#X connect 26 3 11 0;
#X connect 26 4 12 0;
#X connect 26 5 13 0;
#X connect 26 6 16 0;
#X connect 27 0 1 1;
#X connect 28 0 1 1;
#X connect 29 0 1 1;
#X connect 30 0 1 1;
#X connect 31 0 1 1;
#X connect 32 0 1 2;
#X connect 34 0 42 0;
#X connect 35 0 36 0;
#X connect 36 0 38 0;
#X connect 37 0 34 0;
#X connect 38 0 1 0;
#X connect 39 0 34 0;
#X connect 41 0 26 0;
#X connect 41 0 15 0;
#X restore 29 206 pd sect-midi-client-innards;
#X text 27 16 Sect Midi Client \; \; This Pd script allows communication
between Sect and external MIDI devices. \; \; Information can be sent
from a user's MIDI controllers into Sect \, or from Sect into a user's
MIDI devices. \; \; URLs for Sect-related material: https://github.com/strangewarp/SectTutorial
https://github.com/strangewarp/SectMidiClient https://github.com/strangewarp/Sect
;
