#N canvas 618 24 416 205 10;
#X declare -lib mrpeach;
#X floatatom 49 91 5 0 0 0 - - -;
#X obj 49 159 import mrpeach;
#N canvas 132 17 449 685 test-osc-guts 0;
#X obj 49 25 inlet;
#X obj 49 117 unpackOSC;
#X obj 49 95 udpreceive 8500;
#X obj 49 145 route /extrovert;
#X obj 49 197 route note;
#X msg 49 62 port \$1;
#X obj 88 382 f;
#X obj 52 382 f;
#X obj 28 335 t b b f;
#X obj 49 229 unpack f f f f f f f;
#N canvas 41 42 426 452 calculate-delay 0;
#X obj 77 35 inlet;
#X obj 191 35 inlet;
#X obj 302 35 inlet;
#X text 186 16 BPM;
#X text 298 16 TPQ;
#X text 29 15 MIDI Note Length;
#X obj 126 391 outlet;
#X obj 204 177 f;
#X obj 249 177 f;
#X obj 204 224 *;
#X obj 149 270 /;
#X obj 126 325 *;
#X obj 87 113 t f b b b;
#X obj 302 83 * 4;
#X msg 149 227 60000;
#X connect 0 0 12 0;
#X connect 1 0 7 1;
#X connect 2 0 13 0;
#X connect 7 0 9 0;
#X connect 8 0 9 1;
#X connect 9 0 10 1;
#X connect 10 0 11 1;
#X connect 11 0 6 0;
#X connect 12 0 11 0;
#X connect 12 1 14 0;
#X connect 12 2 7 0;
#X connect 12 3 8 0;
#X connect 13 0 8 1;
#X connect 14 0 10 0;
#X restore 270 396 pd calculate-delay;
#X obj 243 333 f;
#X obj 192 339 f;
#X obj 192 271 t b b b f;
#X obj 189 455 f;
#X obj 218 455 f;
#X obj 214 412 t b b;
#X obj 298 446 print delay;
#X obj 189 497 pipe 0 0 0 100;
#X obj 92 564 pack 0 0 0;
#X obj 92 592 list trim;
#X obj 92 647 noteout;
#X obj 103 620 print cmd-out;
#X obj 93 171 print cmd-in;
#X obj 49 171 t a a;
#X connect 0 0 5 0;
#X connect 1 0 3 0;
#X connect 2 0 1 0;
#X connect 3 0 24 0;
#X connect 4 0 9 0;
#X connect 5 0 2 0;
#X connect 6 0 19 1;
#X connect 7 0 14 1;
#X connect 7 0 19 0;
#X connect 8 0 7 0;
#X connect 8 1 6 0;
#X connect 8 2 15 1;
#X connect 8 2 19 2;
#X connect 9 0 13 0;
#X connect 9 1 12 1;
#X connect 9 3 11 1;
#X connect 9 4 8 0;
#X connect 9 5 7 1;
#X connect 9 6 6 1;
#X connect 10 0 17 0;
#X connect 10 0 18 3;
#X connect 11 0 10 0;
#X connect 12 0 10 2;
#X connect 13 0 16 0;
#X connect 13 1 11 0;
#X connect 13 2 12 0;
#X connect 13 3 10 1;
#X connect 14 0 18 0;
#X connect 15 0 18 2;
#X connect 16 0 14 0;
#X connect 16 1 15 0;
#X connect 18 0 19 0;
#X connect 18 1 19 1;
#X connect 18 2 19 2;
#X connect 19 0 20 0;
#X connect 20 0 21 0;
#X connect 20 0 22 0;
#X connect 24 0 4 0;
#X connect 24 1 23 0;
#X restore 49 130 pd test-osc-guts;
#X text 50 11 This is a MIDI-over-OSC utility for Sect \,;
#X text 50 31 which allows MIDI notes to be sent in realtime.;
#X text 86 91 OSC-IN port (default: 8500);
#X connect 0 0 2 0;
